<?xml version="1.0" encoding="utf-8"?>
<!-- Generator: Adobe Illustrator 22.1.0, SVG Export Plug-In . SVG Version: 6.00 Build 0)  -->
<svg version="1.1" id="Layer_1" xmlns="http://www.w3.org/2000/svg" xmlns:xlink="http://www.w3.org/1999/xlink" x="0px" y="0px"
	 viewBox="0 0 120 125" style="background: none;" xml:space="preserve">
<style type="text/css">
	.st0{fill:#7C7D7D;}
	.st1{clip-path:url(#SVGID_2_);fill:none;background:none;}
	.st2{fill:none;}
	.st3{fill:#A5CE3A;}
	.st4{fill:#64BC46;}
	.st5{fill:#F78F1E;}
	.st6{fill:#A77F37;}
	.st7{fill:#77773E;}
	.st8{fill:#972F5A;}
	.st9{fill:#71332D;}
	.st10{fill:#982A27;}
	.st11{fill:#712D2C;}
	.st12{fill:#57A571;}
	.st13{fill:#808285;}
</style>
<title>logo-dark-text</title>
<g>
	<g>
		<defs>
			<path id="SVGID_1_" d="M109.1,86.5c-0.2,3.5-2,6.8-5,8.7l-39,22.5c-3.2,1.6-6.9,1.6-10,0L16,95.2c-3-1.9-4.8-5.2-5-8.7v-45
				c0.2-3.5,2-6.8,5-8.7l39-22.5c3.2-1.6,6.9-1.6,10,0l39,22.5c3,1.9,4.8,5.2,5,8.7V86.5z"/>
		</defs>
		<clipPath id="SVGID_2_">
			<use xlink:href="#SVGID_1_"  style="overflow:visible; background: none;"/>
		</clipPath>
		<g class="st1">
			<g>
				<g>
					<circle class="st2" cx="107" cy="60" r="13.5"/>
					<path class="st3" d="M91.2,23.8c-0.9,0-1.8,0-2.6,0.1c2.8,14.9-6.6,29.5-21.4,33.1c0.1,1.1,0.2,2.3,0.2,3.5
						c0,10.7-4.5,21-12.3,28.3c9.4,5.9,14.1,17,11.7,27.8c23.8,13.5,54.1,5.2,67.7-18.7c13.5-23.8,5.2-54.1-18.7-67.7
						C108.3,26,99.9,23.7,91.2,23.8z M107,73.5c-7.4,0-13.5-6-13.5-13.5s6-13.5,13.5-13.5c7.4,0,13.5,6,13.5,13.5
						C120.5,67.4,114.5,73.5,107,73.5C107,73.5,107,73.5,107,73.5z"/>
				</g>
				<path class="st3" d="M58.7,35.9c8.3-7.3,18.9-11.5,29.9-12.1C85.8,8.1,70.9-2.4,55.2,0.4C44,2.4,35,10.8,32.2,21.8
					C42.6,22.7,52.1,27.8,58.7,35.9z"/>
				<path class="st4" d="M67.3,56.9C82,53.3,91.4,38.8,88.6,23.8C77.6,24.4,67,28.6,58.7,35.9C63.6,41.9,66.6,49.2,67.3,56.9z"/>
				<path class="st5" d="M41.1,84.7c0.6,0,1.2,0,1.8,0.1c-2.4-10.3-1.5-21.2,2.7-30.9c-11.1-6.4-16.6-19.5-13.4-32
					c-1.2-0.1-2.3-0.2-3.5-0.2C7.3,21.8-9.9,39.2-9.9,60.5C-9.8,77.8,1.7,93,18.4,97.7C23.1,89.6,31.8,84.7,41.1,84.7z"/>
				<path class="st6" d="M45.6,53.8c-4.2,9.8-5.1,20.6-2.7,30.9c4.3,0.3,8.5,1.7,12.2,4c7.9-7.3,12.3-17.6,12.3-28.3
					c0-1.2-0.1-2.3-0.2-3.5C59.9,58.8,52.1,57.7,45.6,53.8z"/>
				<path class="st6" d="M45.6,53.8c3-6.9,7.4-13,13.1-17.9c-6.6-8.1-16.1-13.2-26.5-14.1C29,34.3,34.5,47.4,45.6,53.8z"/>
				<path class="st7" d="M45.6,53.8c6.5,3.9,14.3,5,21.7,3.1c-0.7-7.7-3.7-15-8.6-21C53.1,40.8,48.6,47,45.6,53.8z"/>
				<path class="st8" d="M46.5,94.8c-8.7,4.5-18.7,5.5-28.1,2.9c-7.4,12.5-3.2,28.6,9.3,36c12.5,7.4,28.6,3.2,36-9.3
					c1.5-2.5,2.5-5.1,3.1-7.9C58,111.5,50.9,103.9,46.5,94.8z"/>
				<path class="st9" d="M55.1,88.7c-2.6,2.4-5.5,4.5-8.6,6.1c4.4,9.2,11.5,16.7,20.4,21.7C69.2,105.7,64.5,94.6,55.1,88.7z"/>
				<path class="st10" d="M46.5,94.8c-1.5-3.2-2.7-6.5-3.5-10c-0.6,0-1.2-0.1-1.8-0.1c-9.4,0-18,5-22.7,13
					C27.8,100.3,37.8,99.3,46.5,94.8z"/>
				<path class="st3" d="M46.5,94.8c3.1-1.6,6-3.7,8.6-6.1c-3.7-2.3-7.8-3.7-12.2-4C43.8,88.2,45,91.6,46.5,94.8z"/>
				<path class="st11" d="M46.5,94.8c3.1-1.6,6-3.7,8.6-6.1c-3.7-2.3-7.8-3.7-12.2-4C43.8,88.2,45,91.6,46.5,94.8z"/>
				<circle class="st12" cx="107" cy="60" r="13.5"/>
			</g>
		</g>
	</g>
</g>
</svg>
